<svg xmlns="http://www.w3.org/2000/svg" viewBox="0 0 500 500"><g id="freepik--Floor--inject-315"><ellipse id="freepik--floor--inject-315" cx="250" cy="339.53" rx="222.46" ry="128.44" style="fill:#f5f5f5"></ellipse></g><g id="freepik--Shadows--inject-315"><path id="freepik--Shadow--inject-315" d="M64.61,386.28l14.82,8.5a5.49,5.49,0,0,0,5,0l116.86-67.5c1.37-.79,1.37-2.07,0-2.85l-15-8.43a5.54,5.54,0,0,0-5,0L64.61,383.42C63.24,384.21,63.24,385.49,64.61,386.28Z" style="fill:#e0e0e0"></path><path id="freepik--shadow--inject-315" d="M434.09,386.28l-14.82,8.5a5.51,5.51,0,0,1-5,0l-116.86-67.5c-1.37-.79-1.36-2.07,0-2.85l15-8.43a5.54,5.54,0,0,1,5,0l116.68,67.4C435.46,384.21,435.46,385.49,434.09,386.28Z" style="fill:#e0e0e0"></path></g><g id="freepik--Devices--inject-315"><g id="freepik--device-2--inject-315"><path d="M306.74,89.63V322.2a8.33,8.33,0,0,0,3.74,6.5l103.13,59.53c2.06,1.2,3.74.22,3.74-2.17V153.5a8.33,8.33,0,0,0-3.74-6.5L310.48,87.47C308.42,86.27,306.74,87.24,306.74,89.63Zm5.39,27.76c0-2,1.44-2.88,3.22-1.85l93.76,54.12a7.14,7.14,0,0,1,3.22,5.58V357.41c0,2.06-1.45,2.88-3.22,1.86l-93.76-54.13c-1.78-1-3.22-2.33-3.22-4.37Z" style="fill:#C53F3F"></path><path d="M306.74,89.63V322.2a8.33,8.33,0,0,0,3.74,6.5l103.13,59.53c2.06,1.2,3.74.22,3.74-2.17V153.5a8.33,8.33,0,0,0-3.74-6.5L310.48,87.47C308.42,86.27,306.74,87.24,306.74,89.63Zm5.39,27.76c0-2,1.44-2.88,3.22-1.85l93.76,54.12a7.14,7.14,0,0,1,3.22,5.58V357.41c0,2.06-1.45,2.88-3.22,1.86l-93.76-54.13c-1.78-1-3.22-2.33-3.22-4.37Z" style="opacity:0.5"></path><path d="M414.07,388.46a8.36,8.36,0,0,0,7-.23l4.29-2.48a8.26,8.26,0,0,0,3.76-6.5V146.7a7,7,0,0,0-.65-2.8,9.37,9.37,0,0,0-.44-.9h0l-11.8,6.81h0a10.81,10.81,0,0,1,.65,1.38,7,7,0,0,1,.45,2.32V386.07C417.35,388.27,415.92,389.27,414.07,388.46Z" style="fill:#C53F3F"></path><path d="M414.07,388.46a8.36,8.36,0,0,0,7-.23l4.29-2.48a8.26,8.26,0,0,0,3.76-6.5V146.7a7,7,0,0,0-.65-2.8,9.37,9.37,0,0,0-.44-.9h0l-11.8,6.81h0a10.81,10.81,0,0,1,.65,1.38,7,7,0,0,1,.45,2.32V386.07C417.35,388.27,415.92,389.27,414.07,388.46Z" style="opacity:0.7000000000000001"></path><path d="M361.15,338c-3.27-1.88-5.92-.35-5.92,3.42a13.09,13.09,0,0,0,5.92,10.26c3.27,1.88,5.92.35,5.92-3.42A13.09,13.09,0,0,0,361.15,338Z" style="fill:none;stroke:#e6e6e6;stroke-miterlimit:10"></path><path d="M362,122.25c-1.38-.8-2.51-.15-2.51,1.45a5.6,5.6,0,0,0,2.51,4.36c1.39.8,2.52.15,2.52-1.46A5.55,5.55,0,0,0,362,122.25Z"></path><path d="M371.75,137.54l-19.41-11.21c-1.16-.66-2.1-.19-2.1,1.06a4.5,4.5,0,0,0,2.1,3.49l19.41,11.2c1.16.67,2.1.2,2.1-1.06A4.5,4.5,0,0,0,371.75,137.54Z"></path><path d="M312.13,300.77c0,2,1.44,3.35,3.22,4.37l93.76,54.13c1.77,1,3.22.2,3.22-1.86V175.24a7.14,7.14,0,0,0-3.22-5.58l-93.76-54.12c-1.78-1-3.22-.2-3.22,1.85Z" style="fill:#C53F3F"></path><path d="M312.13,300.77c0,2,1.44,3.35,3.22,4.37l93.76,54.13c1.77,1,3.22.2,3.22-1.86V175.24a7.14,7.14,0,0,0-3.22-5.58l-93.76-54.12c-1.78-1-3.22-.2-3.22,1.85Z" style="fill:#fff;opacity:0.5"></path><path d="M318.4,131.17v-1.71c0-.37.15-.59.33-.49l.09.06a1.07,1.07,0,0,1,.33.85v1.71c0,.37-.15.59-.33.48l-.09,0A1.09,1.09,0,0,1,318.4,131.17Z" style="fill:#455a64"></path><path d="M319.89,132v-3c0-.37.14-.59.32-.48l.09,0a1.1,1.1,0,0,1,.33.86v2.95c0,.37-.15.58-.33.48l-.09-.05A1.11,1.11,0,0,1,319.89,132Z" style="fill:#455a64"></path><path d="M321.37,132.88v-4.2c0-.37.15-.58.33-.48l.09.05a1.11,1.11,0,0,1,.33.86v4.2c0,.37-.15.58-.33.48l-.09,0A1.11,1.11,0,0,1,321.37,132.88Z" style="fill:#455a64"></path><path d="M322.86,133.73v-7.24c0-.37.14-.59.32-.48l.09,0a1.11,1.11,0,0,1,.33.86v7.24c0,.37-.15.59-.33.48l-.09,0A1.09,1.09,0,0,1,322.86,133.73Z" style="fill:#455a64"></path><path d="M326.88,136.55a.68.68,0,0,1-.05-.27v-1.06l-1.66-1A.34.34,0,0,1,325,134v-.38a.78.78,0,0,1,0-.19,1.21,1.21,0,0,1,.05-.14l1.77-2.79s.06-.08.09-.09.06,0,.11,0l.23.14a.33.33,0,0,1,.16.17.75.75,0,0,1,0,.28v3.72l.37.21a.38.38,0,0,1,.15.16.81.81,0,0,1,0,.29v.25a.39.39,0,0,1,0,.22s-.08,0-.15,0l-.37-.21v1.06a.39.39,0,0,1,0,.22s-.08,0-.16,0l-.28-.16A.36.36,0,0,1,326.88,136.55Zm.06-2.17v-2.65l-1.21,2Z" style="fill:#455a64"></path><path d="M328.85,137.05a7.06,7.06,0,0,1-.49-2.74,3.54,3.54,0,0,1,.49-2.17q.5-.57,1.38-.06a3.13,3.13,0,0,1,1.18,1.18.26.26,0,0,1,0,.15.44.44,0,0,1,0,.1l-.15.38s0,.06-.06.05a.25.25,0,0,1-.07-.09,2.52,2.52,0,0,0-.85-.84c-.4-.23-.72-.22-.94.05a2.72,2.72,0,0,0-.34,1.63,5.26,5.26,0,0,0,.33,2,2.21,2.21,0,0,0,.9,1.12,1.6,1.6,0,0,0,.41.18.65.65,0,0,0,.33,0V136.3l-.69-.4a.35.35,0,0,1-.15-.17.72.72,0,0,1,0-.28v-.24c0-.12,0-.19,0-.22s.08,0,.15,0l1.1.64a.37.37,0,0,1,.17.2,1,1,0,0,1,.05.33v2.46a.81.81,0,0,1,0,.2.15.15,0,0,1-.06.09,1.39,1.39,0,0,1-1.32-.22A3.37,3.37,0,0,1,328.85,137.05Z" style="fill:#455a64"></path><path d="M404.74,174a1.87,1.87,0,0,0-.66-1l-5-2.88c-.43-.25-.76.24-.76,1.12V175a4.53,4.53,0,0,0,.28,1.52,3.24,3.24,0,0,0,.27.56,1.34,1.34,0,0,0,.39.42l5,2.88c.43.24.77-.25.77-1.13v-3.73A4.55,4.55,0,0,0,404.74,174Zm-5.94,2.25a1.86,1.86,0,0,1-.11-.66v-3.73c0-.65.27-1.05.58-.86l5,2.88a.6.6,0,0,1,.21.21,1,1,0,0,1,.08.18,1.92,1.92,0,0,1,.11.67v3.72c0,.65-.27,1.05-.58.86l-5-2.88A.68.68,0,0,1,398.8,176.22Z" style="fill:#455a64"></path><path d="M401.94,173.18v4.41L399.26,176l-.09-.07a.66.66,0,0,0,0-.15v-3.35c0-.47.21-.77.44-.64Z" style="fill:#455a64"></path><path d="M405.27,175.66c.19.1.34.81.34,1.57v.69c0,.77-.15,1.32-.34,1.23l-.34-.16v-3.52Z" style="fill:#455a64"></path><path d="M392.9,172.41c0,.82-.43,1.24-1,.93a2.57,2.57,0,0,1-1-2.05c0-.82.43-1.23,1-.93A2.55,2.55,0,0,1,392.9,172.41Z" style="fill:#455a64"></path><path d="M391.93,167.93a1.45,1.45,0,0,0-2.24.78,1,1,0,0,0,.1.79h0c.18.32.45.4.56.14a1,1,0,0,1,1.58-.55,4,4,0,0,1,1.58,2.38c.11.38.38.62.57.5h0a.64.64,0,0,0,.1-.68A5.8,5.8,0,0,0,391.93,167.93Z" style="fill:#455a64"></path><path d="M391.93,165.55a2.29,2.29,0,0,0-3.45.93,1,1,0,0,0,.08.83h0c.17.32.43.4.55.17a1.86,1.86,0,0,1,2.81-.76,7.29,7.29,0,0,1,2.82,4c.12.36.38.59.55.47h0c.16-.1.19-.42.08-.74A9,9,0,0,0,391.93,165.55Z" style="fill:#455a64"></path><path d="M306.77,89c.27-2,1.83-2.66,3.71-1.57L413.61,147a7.62,7.62,0,0,1,2.65,2.8l11.8-6.81a7.69,7.69,0,0,0-2.66-2.79L322.29,80.66a8.28,8.28,0,0,0-7.51,0l-4.3,2.47A8.4,8.4,0,0,0,306.77,89Z" style="fill:#C53F3F"></path><path d="M306.77,89c.27-2,1.83-2.66,3.71-1.57L413.61,147a7.62,7.62,0,0,1,2.65,2.8l11.8-6.81a7.69,7.69,0,0,0-2.66-2.79L322.29,80.66a8.28,8.28,0,0,0-7.51,0l-4.3,2.47A8.4,8.4,0,0,0,306.77,89Z" style="opacity:0.2"></path></g><g id="freepik--device-1--inject-315"><path d="M189.52,87.47,86.39,147a8.33,8.33,0,0,0-3.74,6.5V386.06c0,2.39,1.68,3.37,3.74,2.17L189.52,328.7a8.33,8.33,0,0,0,3.74-6.5V89.63C193.26,87.24,191.58,86.27,189.52,87.47Zm-1.65,213.3c0,2-1.44,3.35-3.22,4.37L90.89,359.27c-1.77,1-3.22.2-3.22-1.86V175.24a7.14,7.14,0,0,1,3.22-5.58l93.76-54.12c1.78-1,3.22-.2,3.22,1.85Z" style="fill:#C53F3F"></path><path d="M189.52,87.47,86.39,147a8.33,8.33,0,0,0-3.74,6.5V386.06c0,2.39,1.68,3.37,3.74,2.17L189.52,328.7a8.33,8.33,0,0,0,3.74-6.5V89.63C193.26,87.24,191.58,86.27,189.52,87.47Zm-1.65,213.3c0,2-1.44,3.35-3.22,4.37L90.89,359.27c-1.77,1-3.22.2-3.22-1.86V175.24a7.14,7.14,0,0,1,3.22-5.58l93.76-54.12c1.78-1,3.22-.2,3.22,1.85Z" style="opacity:0.5"></path><path d="M85.93,388.46a8.36,8.36,0,0,1-7-.23l-4.29-2.48a8.26,8.26,0,0,1-3.76-6.5V146.7a7,7,0,0,1,.65-2.8,9.37,9.37,0,0,1,.44-.9h0l11.8,6.81h0a10.81,10.81,0,0,0-.65,1.38,7,7,0,0,0-.45,2.32V386.07C82.65,388.27,84.08,389.27,85.93,388.46Z" style="fill:#C53F3F"></path><path d="M85.93,388.46a8.36,8.36,0,0,1-7-.23l-4.29-2.48a8.26,8.26,0,0,1-3.76-6.5V146.7a7,7,0,0,1,.65-2.8,9.37,9.37,0,0,1,.44-.9h0l11.8,6.81h0a10.81,10.81,0,0,0-.65,1.38,7,7,0,0,0-.45,2.32V386.07C82.65,388.27,84.08,389.27,85.93,388.46Z" style="opacity:0.7000000000000001"></path><path d="M138.85,338c3.27-1.88,5.92-.35,5.92,3.42a13.09,13.09,0,0,1-5.92,10.26c-3.27,1.88-5.92.35-5.92-3.42A13.09,13.09,0,0,1,138.85,338Z" style="fill:none;stroke:#e6e6e6;stroke-miterlimit:10"></path><path d="M138,122.25c1.38-.8,2.51-.15,2.51,1.45a5.6,5.6,0,0,1-2.51,4.36c-1.39.8-2.52.15-2.52-1.46A5.55,5.55,0,0,1,138,122.25Z"></path><path d="M128.25,137.54l19.41-11.21c1.16-.66,2.1-.19,2.1,1.06a4.5,4.5,0,0,1-2.1,3.49l-19.41,11.2c-1.16.67-2.1.2-2.1-1.06A4.5,4.5,0,0,1,128.25,137.54Z"></path><path d="M187.87,300.77c0,2-1.44,3.35-3.22,4.37L90.89,359.27c-1.77,1-3.22.2-3.22-1.86V175.24a7.14,7.14,0,0,1,3.22-5.58l93.76-54.12c1.78-1,3.22-.2,3.22,1.85Z" style="fill:#C53F3F"></path><path d="M187.87,300.77c0,2-1.44,3.35-3.22,4.37L90.89,359.27c-1.77,1-3.22.2-3.22-1.86V175.24a7.14,7.14,0,0,1,3.22-5.58l93.76-54.12c1.78-1,3.22-.2,3.22,1.85Z" style="fill:#fff;opacity:0.9"></path><path d="M163.47,139.57c0,.83.43,1.24,1,.93a2.53,2.53,0,0,0,1-2c0-.82-.43-1.24-1-.93A2.53,2.53,0,0,0,163.47,139.57Z" style="fill:#455a64"></path><path d="M162.19,138.47a.64.64,0,0,0,.1.68h0c.19.11.46-.13.57-.51a4.06,4.06,0,0,1,1.58-2.38,1,1,0,0,1,1.58.56c.11.25.38.18.56-.15h0a1,1,0,0,0,.1-.8,1.45,1.45,0,0,0-2.24-.77A5.8,5.8,0,0,0,162.19,138.47Z" style="fill:#455a64"></path><path d="M161,137.63c-.11.32-.08.64.08.74h0c.17.11.43-.11.55-.47a7.36,7.36,0,0,1,2.82-4,1.86,1.86,0,0,1,2.81.77c.12.22.38.15.55-.17h0a1,1,0,0,0,.07-.83,2.28,2.28,0,0,0-3.44-.92A9,9,0,0,0,161,137.63Z" style="fill:#455a64"></path><path d="M93.6,180.8v-1.48a1,1,0,0,1,.37-.8l.11-.06c.2-.12.37,0,.37.36v1.48a1,1,0,0,1-.37.8l-.11.06C93.76,181.28,93.6,181.12,93.6,180.8Z" style="fill:#455a64"></path><path d="M95.31,179.81v-2.56a1,1,0,0,1,.37-.8l.11-.06c.21-.12.38,0,.38.36v2.56a1,1,0,0,1-.38.8l-.11.06C95.48,180.29,95.31,180.13,95.31,179.81Z" style="fill:#455a64"></path><path d="M97,178.82v-3.64a1,1,0,0,1,.38-.79l.1-.06c.21-.12.38,0,.38.36v3.63a1,1,0,0,1-.38.8l-.1.06C97.19,179.3,97,179.14,97,178.82Z" style="fill:#455a64"></path><path d="M98.74,177.83v-6.28a1,1,0,0,1,.37-.79l.11-.06c.21-.12.38,0,.38.36v6.27a1,1,0,0,1-.37.8l-.11.06C98.91,178.31,98.74,178.15,98.74,177.83Z" style="fill:#455a64"></path><path d="M103.38,175.58s0-.09,0-.18v-.92l-1.93,1.11c-.1.06-.15,0-.15-.11v-.33a.92.92,0,0,1,0-.18l.07-.19,2-4.48a1.3,1.3,0,0,1,.1-.18.81.81,0,0,1,.13-.11l.27-.15q.12-.08.18,0a.28.28,0,0,1,0,.2v3.21l.43-.24c.08-.05.13-.06.17,0s0,.09,0,.19v.22a.55.55,0,0,1,0,.24.44.44,0,0,1-.17.16l-.43.25V175a.41.41,0,0,1-.23.41l-.32.18C103.47,175.59,103.41,175.6,103.38,175.58Zm.07-2v-2.3l-1.39,3.1Z" style="fill:#455a64"></path><path d="M105.66,173.7c-.38-.28-.56-.88-.56-1.8a5.29,5.29,0,0,1,.56-2.45,4.1,4.1,0,0,1,1.59-1.66,3.23,3.23,0,0,1,.77-.33,1,1,0,0,1,.6,0,.07.07,0,0,1,0,.07.28.28,0,0,1,0,.11l-.18.5c0,.07,0,.11-.07.12h-.08a1.54,1.54,0,0,0-1,.25,2.88,2.88,0,0,0-1.09,1.15,3.87,3.87,0,0,0-.39,1.81c0,.71.13,1.17.38,1.36s.61.17,1.05-.08a3.63,3.63,0,0,0,.47-.33,2.24,2.24,0,0,0,.38-.37v-1.49l-.8.46c-.08.05-.14.06-.17,0a.27.27,0,0,1,0-.19v-.21a.55.55,0,0,1,0-.25.44.44,0,0,1,.17-.16l1.28-.73c.09-.06.15-.06.19,0s.06.11.06.23v2.13a1,1,0,0,1,0,.2.44.44,0,0,1-.08.15,4.66,4.66,0,0,1-1.52,1.35C106.57,173.92,106,174,105.66,173.7Z" style="fill:#455a64"></path><path d="M178.91,125.77a.59.59,0,0,0-.76-.08L172.39,129a2.33,2.33,0,0,0-.88,1.88v3.22a1.34,1.34,0,0,0,.33,1,.6.6,0,0,0,.31.17.63.63,0,0,0,.45-.09l5.76-3.32a2.33,2.33,0,0,0,.88-1.88v-3.22A1.34,1.34,0,0,0,178.91,125.77Zm-6.86,8.88a.67.67,0,0,1-.12-.46V131a1.82,1.82,0,0,1,.67-1.43l5.76-3.32a.39.39,0,0,1,.24-.06l.1,0a.67.67,0,0,1,.12.46v3.22a1.82,1.82,0,0,1-.67,1.43l-5.76,3.32C172.25,134.72,172.13,134.73,172.05,134.65Z" style="fill:#455a64"></path><path d="M175.68,128.34v3.82l-3.1,1.79-.1,0a.52.52,0,0,0,0-.13V131a1.38,1.38,0,0,1,.5-1.06Z" style="fill:#455a64"></path><path d="M179.53,126.6c.21-.12.38.32.38,1v.6a2.13,2.13,0,0,1-.39,1.45l-.38.25v-3Z" style="fill:#455a64"></path><path d="M193.23,89c-.27-2-1.83-2.66-3.71-1.57L86.39,147a7.62,7.62,0,0,0-2.65,2.8L71.94,143a7.69,7.69,0,0,1,2.66-2.79L177.71,80.66a8.26,8.26,0,0,1,7.5,0l4.31,2.47A8.4,8.4,0,0,1,193.23,89Z" style="fill:#C53F3F"></path><path d="M193.23,89c-.27-2-1.83-2.66-3.71-1.57L86.39,147a7.62,7.62,0,0,0-2.65,2.8L71.94,143a7.69,7.69,0,0,1,2.66-2.79L177.71,80.66a8.26,8.26,0,0,1,7.5,0l4.31,2.47A8.4,8.4,0,0,1,193.23,89Z" style="opacity:0.2"></path></g></g><g id="freepik--Characters--inject-315"><g id="freepik--character-shaking-hands--inject-315"><path d="M383.11,312.58s-10.69,10.7-24.9,6.61c0,0,4.28,4.22,14.35,1.39C379.35,318.67,383.11,312.58,383.11,312.58Z" style="fill:#C53F3F"></path><path d="M404.33,247s5.46,14.1-4,25.44c0,0,5.59-2.2,7.07-12.56C408.37,252.86,404.33,247,404.33,247Z" style="fill:#C53F3F"></path><path d="M382,317.07c10-10.29,14.35-22.3,14.45-34.57,0,0,2.91,7.3-1.63,18.82S382,317.07,382,317.07Z" style="fill:#C53F3F"></path><path d="M106.13,302.19s-.13,15.12,12.75,22.39c0,0-6-.1-11-9.26C104.43,309.14,106.13,302.19,106.13,302.19Z" style="fill:#C53F3F"></path><path d="M102.87,308.25A49.21,49.21,0,0,1,111,271.66s-6.58,4.29-9.5,16.33S102.87,308.25,102.87,308.25Z" style="fill:#C53F3F"></path><g id="freepik--Girl--inject-315"><path d="M326.86,224l4.23-12.65c-11.14,2-14.17,3.52-17.46,12.73l-2.18,7.34-13.34,41.06c-3.16.83-42.5,11.67-43.87,11.84,0,0-.06.1-.1.15-12.85.82-17,1.39-17,1.39,3.61,9.44,10.38,14.76,19.73,16.68l0-.22,0,.07c16.55-2.82,43.7-9.22,52.53-12.15,3.72-1.19,5.31-5.38,6.84-8.88,6.25-14.29,12.78-33.55,15-45.14C332.68,229.24,330.57,225.75,326.86,224Z" style="fill:#b16668"></path><path d="M331.09,211.3s-11.07-1.7-15.87,8.46C312,226.62,302.15,256,302.15,256s7,9,22.33,9.55c0,0,14.48-33.25,13.67-34.31S331.09,211.3,331.09,211.3Z" style="fill:#37474f"></path><path d="M329.06,211.09c-2.69.26-9.51,9.38-9.65,24.9-.19,20.79,10,46.24,12.56,51.73s7.54,16.24,16,24.22c2.73,2.56,21.37,9.81,33.38-3.69,12.22-13.73,10.29-31.77,7.85-37.42-4.09-9.46-11.32-20.47-11.06-32.92-1.53-8.94-4.46-20.51-11.14-25.36-2.75-.7-11.41-1.81-13.1-1.58Z" style="fill:#fafafa"></path><path d="M364.26,227.59l-3.41,4.28c1,6.79,6.15,16.6,12.14,24.43,4.67,6.11,14.17,12.41,18,23.2a27.61,27.61,0,0,0-1.73-8.67c-4.09-9.46-11.32-20.47-11.06-32.92-.25-1.48-.55-3-.89-4.61l-3.2-2.9Z" style="fill:#ebebeb"></path><path d="M367,212.55c5.85,1.44,9,4.53,14.12,10.38C387,229.53,399,243.41,399,243.41c8.39,14.54.85,29.33-5.44,26.9,0,0-14.18-13.85-22.88-24.35-5.83-7-8.8-11-9.13-18.71C361.27,221.19,362.35,215,367,212.55Z" style="fill:#b16668"></path><path d="M363.94,212s5.05-1.12,11.62,4.17,22.63,22.77,22.63,22.77.48,18.51-11.31,26.86c0,0-17.4-17.46-21.69-23.5A29,29,0,0,1,363.94,212Z" style="fill:#37474f"></path><path d="M360.85,177s-2.54,15.51-3.73,18.09a6.93,6.93,0,0,1-3.87,3.43L353,187.75Z" style="fill:#263238"></path><path d="M352.6,154.49s4.19-2.11,7.06.56,3.06,11.85.9,23.74l-7.22-.38Z" style="fill:#263238"></path><circle cx="326.53" cy="169.14" r="20.19" transform="translate(-26.62 66.6) rotate(-11.19)" style="fill:#263238"></circle><path d="M353.2,156.06l6.25-5.74a4.12,4.12,0,0,0-5.95-.4A4.45,4.45,0,0,0,353.2,156.06Z" style="fill:#263238"></path><path d="M315.81,157.35c-1.27,2.19-7.62,11.39-5.3,28.67,2.18,16.27,7.41,20.09,10.19,20.95s8.36.37,13.24-1l.88,6.91s-2.85,4.58,1,7.11,12.32.67,14.28-.89c4.61-3.69,3.91-6.8,3.91-6.8l-1-22.44s3.47,2.86,7.94-.51c4.22-3.17,4.41-11.55.85-14.43s-9.27-1.16-10.05,3.47c0,0-.15-17.2-9.92-21.77C329.32,150.76,315.81,157.35,315.81,157.35Z" style="fill:#b16668"></path><path d="M350.63,180.63c.55-.29,1.49-4.89,4.2-6.45,2.49-1.44-2.21-22-2.23-22.1-.28-1.51-1.83-3.28-2.84-4.38a13.11,13.11,0,0,0-5.56-3.5,19.25,19.25,0,0,0-9-.54c-4.66.72-9.13,2.66-13.84,2.68-4.47,0-8.74-1.73-13.12-2.6a3.51,3.51,0,0,0-2.54.17,2.61,2.61,0,0,0-.92,1.13,5.9,5.9,0,0,0-.14,4.16,14.65,14.65,0,0,0,2,3.76c-1.56-.73-3.76-.79-4.66.67-.71,1.15-.27,2.65.38,3.83,2.74,4.92,7.61,7.08,12.73,8.25a43.06,43.06,0,0,0,6.51.6c5.52.31,10.82-1.9,15.91-4.06,1.4-.6,4.13-1.62,5.66-.38,1.9,1.54,1.81,6.52,2.38,10.61C346.42,178.89,348.55,181.75,350.63,180.63Z" style="fill:#263238"></path><path d="M333,193l-5.57,2.49a3,3,0,0,0,4,1.65A3.21,3.21,0,0,0,333,193Z" style="fill:#9a4a4d"></path><path d="M313,179.71a2.07,2.07,0,1,0,1.93-2.27A2.11,2.11,0,0,0,313,179.71Z" style="fill:#263238"></path><path d="M329.06,178.72a2.07,2.07,0,1,0,1.93-2.27A2.1,2.1,0,0,0,329.06,178.72Z" style="fill:#263238"></path><polygon points="323.62 179.16 323.25 191.57 316.72 189.53 323.62 179.16" style="fill:#9a4a4d"></polygon><path d="M333.94,206c4.1-.94,12.12-4.39,13.64-7.39,0,0,.15,1.91-2.28,4.81s-10.95,5.8-10.95,5.8Z" style="fill:#9a4a4d"></path><path d="M311.37,175.4l4.63-2a2.65,2.65,0,0,0-3.41-1.34A2.47,2.47,0,0,0,311.37,175.4Z" style="fill:#263238"></path><path d="M330.31,172.41l4.42,2.4a2.62,2.62,0,0,0-1.05-3.5A2.44,2.44,0,0,0,330.31,172.41Z" style="fill:#263238"></path></g><g id="freepik--girl--inject-315"><path d="M197.21,209.22H162.75a31.09,31.09,0,0,1-31.08-31v-5.41a29.94,29.94,0,0,1,29.87-30h5.62a29.91,29.91,0,0,1,30,29.86Z" style="fill:#263238"></path><path d="M168.69,211.16c12.36-.93,20.15,4.8,20.41,16.29.14,5.79-4.88,28.84-4.88,28.84Z" style="fill:#ffa8a7"></path><path d="M168.69,211.16c6.29.63,13.23,11.37,19.27,25.18,2.37,5.44,6.7,12.76,1.24,22.94-3.38,6.29-10.34,8.83-10.34,8.83a86.75,86.75,0,0,1-10.8,22.24,55.24,55.24,0,0,1-15.3,24.1c-2.8,2.48-19.91,17.63-33.7,5.94-8.2-6.95-11.06-18-10.22-28.43.49-6.13,1.85-12.19,6.16-16.58a72.54,72.54,0,0,0,6.87-8.1c2.19-10.43-.32-17.51-.58-30,1.53-8.94,5.32-16.52,12-21.36a55.49,55.49,0,0,1,15.45-3.67Z" style="fill:#C53F3F"></path><path d="M168.48,289.73l-.84-6.73s-29-45.46-30.23-46.74c-.72-.77-7.68-5.41-13.12-9a40.81,40.81,0,0,0-3,10c.26,12.45,2.77,19.53.58,30,0,0-1.49,2.11-3.9,4.88,4.3,1.12,11.31-4.29,11.31-4.29s14,19.79,20.16,26.82c5.75,6.59,9.19,7.57,13.44,7.28a53,53,0,0,0,5.18-11.62C168.21,290.14,168.34,289.93,168.48,289.73Z" style="opacity:0.1"></path><path d="M189.2,259.28c.29-.55.56-1.09.8-1.63-5.63,4.32-9.55,1.28-14.27.37-4.88-.94-8.5,6-17.63,5.14-12-1.16-16.35-8.71-16.35-8.71s-.32,13.07,14.55,15.94c9.94,1.92,13.59-3.45,16.34-3.45,1.2,0,2.27.93,6.22,1.17C178.86,268.11,185.82,265.57,189.2,259.28Z" style="opacity:0.05"></path><path d="M185.83,159c1.24,2.14,7.4,11.07,5.15,27.84-2.12,15.79-7.2,18.36-9.9,19.2s-8.11.35-12.85-1l-1.07,9.5s4.6,6.54,3.69,10.84-10.1,3.75-15.86-1.2a18.73,18.73,0,0,1-6.24-11.84l1-21.8s-3.37,2.78-7.71-.49c-4.09-3.08-4.28-11.21-.82-14s9-1.13,9.75,3.36c0,0,10.72,2.48,20.21-2C183.29,171.73,185.06,163.5,185.83,159Z" style="fill:#ffa8a7"></path><path d="M151.17,185.4l-.29-9.92a5.21,5.21,0,0,1,5.22,5A4.84,4.84,0,0,1,151.17,185.4Z" style="fill:#263238"></path><path d="M172.85,194.38l5.4,2.42a2.92,2.92,0,0,1-3.87,1.6A3.1,3.1,0,0,1,172.85,194.38Z" style="fill:#f28f8f"></path><path d="M188.55,180.85a2,2,0,0,1-2.12,2,2.05,2.05,0,0,1-1.87-2.21,2,2,0,1,1,4,.26Z" style="fill:#263238"></path><path d="M174.06,182a2,2,0,1,1-1.87-2.21A2,2,0,0,1,174.06,182Z" style="fill:#263238"></path><polygon points="179.86 180.72 180.22 192.77 186.56 190.79 179.86 180.72" style="fill:#f28f8f"></polygon><path d="M168.23,205c-4-.91-11.76-4.26-13.24-7.17,0,0-.14,1.86,2.22,4.67s10.67,5.58,10.67,5.58Z" style="fill:#f28f8f"></path><path d="M189.19,175.48l-4.49-1.94a2.58,2.58,0,0,1,3.31-1.3A2.39,2.39,0,0,1,189.19,175.48Z" style="fill:#263238"></path></g><path d="M162.3,298.43l9.76-18.67c3.24.47,6.48.92,9.72,1.37,6.45.89,30.82,3.88,32.2,3.9a20.27,20.27,0,0,0,7.81-1.7c3.86-1.45,6.72-3.77,9.84-4.41a14.79,14.79,0,0,1,4.39-.2c1.85.13,1.37,1.12,3.2,1.44a2.73,2.73,0,0,1,1.44.57c.7.66.19,1.06-.18,1.6a5.89,5.89,0,0,0-.74,2.22c-.14.67-.69,2.95.26,3.32,4.61,1.79,5.13,4.43,11.11,9.56,2.86,2.45,4.4,4.22,6.33,5.47,1.21,1.83,1.3,3-3,5.52-2.86,1.7-8,5-16.41,2.36-9.16-2.87-13.85-8-16.21-8.11C205.08,301.73,171.41,300.34,162.3,298.43Z" style="fill:#ffa8a7"></path><path d="M172.06,279.76,147.4,239.33s-4.05-22.59-14.1-23.37c0,0-9.2,2.37-11.3,7.89-2.53,6.68-2.41,13.22,5.14,28,5.7,11.2,21.15,32.31,27.33,39.46,2.5,2.89,5.23,6.28,7.83,7.08" style="fill:#ffa8a7"></path><path d="M222.12,302.7A6.62,6.62,0,0,1,224.7,304a8.64,8.64,0,0,0,4.16-2c4.62-3.37,20.5,3.4,16.59,7.75-2.84,3.16-5.61,4-10.14,2.59C228.63,310.3,221.51,307.25,222.12,302.7Z" style="fill:#b16668"></path><path d="M237.52,279.28c-5.26.91-10.72,4.75-13.57,5.91s-5.79,1.85-3.17,4.36,9,0,13.41-1.56c3-1.08,6.79,0,8.48.7,1.24.51.58-2.84.58-2.84-1-1.46,11.41,0,11-1.44C247.69,284.69,241.76,278.31,237.52,279.28Z" style="fill:#b16668"></path></g></g></svg>